<svg width="102" height="102" viewBox="0 0 102 102" fill="none" xmlns="http://www.w3.org/2000/svg">
<rect width="102" height="102" rx="20" fill="#011F4B"/>
<path d="M43.936 64.448C44.3627 64.4907 44.7467 64.704 45.088 65.088C45.4293 65.472 45.6853 65.8987 45.856 66.368C46.0693 66.8373 46.1333 67.1787 46.048 67.392C46.56 67.904 46.816 68.544 46.816 69.312C46.816 69.952 46.6027 70.528 46.176 71.04C45.792 71.5093 45.28 71.7867 44.64 71.872C43.872 71.9147 43.0827 71.5947 42.272 70.912C41.4613 70.2293 41.0133 69.504 40.928 68.736C40.416 68.4373 39.8613 67.776 39.264 66.752C38.7093 65.728 38.432 64.896 38.432 64.256C37.92 63.872 37.4293 63.232 36.96 62.336C36.4907 61.3973 36.3413 60.672 36.512 60.16C35.9147 59.6907 35.4453 59.0933 35.104 58.368C34.8053 57.6 34.656 56.832 34.656 56.064C34.016 55.9787 33.4827 55.552 33.056 54.784C32.672 54.016 32.48 53.2693 32.48 52.544C32.096 52.3307 31.776 52.0107 31.52 51.584C31.264 51.1573 31.136 50.7307 31.136 50.304C31.136 50.048 31.2213 49.792 31.392 49.536C30.9653 49.792 30.5173 49.92 30.048 49.92C29.5787 49.92 29.0667 49.8133 28.512 49.6C27.9147 49.7707 27.2747 49.856 26.592 49.856C25.9947 49.856 25.5893 49.7493 25.376 49.536C24.736 49.536 24.2453 49.344 23.904 48.96C23.6053 48.576 23.456 48.0853 23.456 47.488C23.456 46.9333 23.584 46.4213 23.84 45.952C24.1387 45.4827 24.4587 45.2693 24.8 45.312C24.8853 45.2267 25.0987 45.1413 25.44 45.056C25.7813 44.9707 26.144 44.928 26.528 44.928C27.2107 44.928 27.7013 45.0133 28 45.184C28.6827 45.056 29.3013 44.992 29.856 44.992C30.4533 44.992 30.816 45.0773 30.944 45.248C31.4133 44.864 31.8827 44.672 32.352 44.672C32.6933 44.672 32.9707 44.7147 33.184 44.8C33.44 44.4587 33.9307 44.1387 34.656 43.84C35.424 43.4987 36.0427 43.392 36.512 43.52C36.6827 43.136 36.9813 42.9013 37.408 42.816C37.8347 42.688 38.24 42.6667 38.624 42.752C38.624 42.368 38.752 41.984 39.008 41.6C39.264 41.216 39.5627 41.0027 39.904 40.96C39.7333 40.3627 39.648 39.808 39.648 39.296C39.648 38.6987 39.7333 38.2293 39.904 37.888C39.648 37.6747 39.456 37.3973 39.328 37.056C39.2427 36.672 39.2427 36.288 39.328 35.904C38.7733 35.4347 38.4107 34.9867 38.24 34.56C37.728 34.5173 37.28 34.2613 36.896 33.792C36.3413 33.8773 35.8933 33.8133 35.552 33.6C35.2107 33.3867 34.8907 33.1307 34.592 32.832C34.2933 32.5333 34.0587 32.2987 33.888 32.128C33.2053 32.5973 32.416 32.832 31.52 32.832C30.5813 32.832 29.856 32.5547 29.344 32C29.0027 32.3413 28.4267 32.512 27.616 32.512C26.848 32.512 26.2293 32.3413 25.76 32C25.4187 32.3413 24.8853 32.512 24.16 32.512C23.4347 32.512 22.8587 32.384 22.432 32.128C22.6453 32.768 22.752 33.5147 22.752 34.368C22.752 35.0933 22.6453 35.712 22.432 36.224C22.7733 36.992 22.944 37.7813 22.944 38.592C22.944 39.4027 22.7733 40 22.432 40.384C22.688 40.896 22.816 41.4293 22.816 41.984C22.816 42.5813 22.6453 43.072 22.304 43.456C22.7307 43.84 22.944 44.5013 22.944 45.44C22.944 46.2507 22.8373 46.848 22.624 47.232C22.8373 47.5307 23.008 48.0213 23.136 48.704C23.264 49.3867 23.328 50.0693 23.328 50.752C23.328 51.3493 23.264 51.8187 23.136 52.16C23.2213 52.3307 23.3067 52.6507 23.392 53.12C23.4773 53.5467 23.52 53.9947 23.52 54.464C23.52 55.4027 23.392 56.0427 23.136 56.384C23.5627 57.152 23.776 57.92 23.776 58.688C23.776 59.2853 23.6053 59.8613 23.264 60.416C23.776 61.312 24.032 62.3787 24.032 63.616C24.032 64.6827 23.8187 65.4507 23.392 65.92C23.6907 66.7307 23.84 67.584 23.84 68.48C23.84 69.504 23.584 70.3573 23.072 71.04C22.56 71.68 21.728 72 20.576 72C19.8933 72 19.3387 71.6373 18.912 70.912C18.528 70.1867 18.336 69.3547 18.336 68.416C18.336 67.6053 18.4427 66.9653 18.656 66.496C18.3147 65.6853 18.144 64.7893 18.144 63.808C18.144 62.9547 18.272 62.272 18.528 61.76C18.1867 60.5653 18.016 59.52 18.016 58.624C18.016 57.728 18.1867 57.0453 18.528 56.576C18.1867 56.4053 17.9093 56.128 17.696 55.744C17.5253 55.3173 17.44 54.8693 17.44 54.4C17.44 53.5467 17.6747 52.8853 18.144 52.416C17.9733 52.288 17.824 52.0747 17.696 51.776C17.6107 51.4347 17.568 51.0933 17.568 50.752C17.568 49.8987 17.7173 49.4507 18.016 49.408C17.888 49.28 17.7813 48.96 17.696 48.448C17.6107 47.936 17.568 47.4027 17.568 46.848C17.568 46.08 17.632 45.4827 17.76 45.056C17.376 44.544 17.184 43.8613 17.184 43.008C17.184 42.3253 17.312 41.7707 17.568 41.344C17.312 40.96 17.184 40.448 17.184 39.808C17.184 39.168 17.376 38.592 17.76 38.08C17.504 37.3547 17.376 36.736 17.376 36.224C17.376 35.6267 17.568 35.136 17.952 34.752C17.696 34.496 17.5467 34.1547 17.504 33.728C17.4613 33.2587 17.44 32.7253 17.44 32.128C16.8 32 16.3093 31.7013 15.968 31.232C15.6267 30.7627 15.456 30.2293 15.456 29.632C15.456 28.9067 15.6907 28.288 16.16 27.776C16.672 27.2213 17.3333 26.9653 18.144 27.008C18.1013 26.7947 18.336 26.6027 18.848 26.432C19.4027 26.2613 19.9787 26.176 20.576 26.176C21.5147 26.176 22.1333 26.4107 22.432 26.88C22.688 26.7947 23.0293 26.752 23.456 26.752C24.0533 26.752 24.4587 26.8373 24.672 27.008C25.184 26.7093 25.824 26.56 26.592 26.56C27.488 26.56 28.128 26.752 28.512 27.136C29.3653 26.88 30.0693 26.752 30.624 26.752C31.4347 26.752 32.0533 26.9653 32.48 27.392C33.0773 27.1787 33.824 27.072 34.72 27.072C35.4027 27.072 36 27.1787 36.512 27.392C37.024 27.5627 37.3653 27.84 37.536 28.224C37.664 28.1813 37.856 28.16 38.112 28.16C38.6667 28.16 39.1573 28.3733 39.584 28.8C40.0533 29.184 40.3733 29.6747 40.544 30.272C41.3547 30.4 41.9307 30.8267 42.272 31.552C43.04 31.6373 43.5733 31.9787 43.872 32.576C44.2133 33.1307 44.384 33.792 44.384 34.56C44.8533 35.4987 45.088 36.3733 45.088 37.184C45.088 37.824 44.9387 38.3573 44.64 38.784C44.8107 39.296 44.896 39.808 44.896 40.32C44.896 41.088 44.64 41.7707 44.128 42.368C44.128 43.0507 43.936 43.7333 43.552 44.416C43.168 45.056 42.656 45.4613 42.016 45.632C41.8453 46.1867 41.5467 46.6347 41.12 46.976C40.6933 47.3173 40.1813 47.488 39.584 47.488C39.3707 47.8293 39.072 48.0853 38.688 48.256C38.304 48.384 37.856 48.4907 37.344 48.576C36.8747 48.6613 36.4907 48.7467 36.192 48.832C36.448 48.8747 36.6613 49.1093 36.832 49.536C37.0027 49.92 37.024 50.176 36.896 50.304C37.2373 50.3893 37.5787 50.7733 37.92 51.456C38.2613 52.096 38.368 52.6507 38.24 53.12C38.88 53.2907 39.3707 53.696 39.712 54.336C40.096 54.976 40.288 55.7227 40.288 56.576C40.8 57.088 41.2267 57.728 41.568 58.496C41.9093 59.264 42.0587 59.9893 42.016 60.672C42.6987 61.0133 43.2107 61.5253 43.552 62.208C43.8933 62.8907 44.0213 63.6373 43.936 64.448ZM81.6385 57.92C81.8945 58.2187 82.0225 58.7947 82.0225 59.648C82.0225 60.9707 81.7452 61.9307 81.1905 62.528C81.2332 62.656 81.2545 62.8053 81.2545 62.976C81.2545 63.5307 80.9132 63.8933 80.2305 64.064C80.3158 64.32 80.3585 64.512 80.3585 64.64C80.3585 65.28 79.9958 65.9627 79.2705 66.688C78.5878 67.3707 77.9692 67.6907 77.4145 67.648C77.1158 68.3733 76.7532 68.9067 76.3265 69.248C75.8998 69.5467 75.3452 69.696 74.6625 69.696C74.3638 69.696 74.1078 69.6747 73.8945 69.632C73.8092 70.0587 73.3398 70.4853 72.4865 70.912C71.6332 71.296 70.7585 71.488 69.8625 71.488C69.3505 71.488 68.9665 71.4453 68.7105 71.36C68.4118 71.5733 68.0065 71.68 67.4945 71.68C67.0678 71.68 66.6838 71.5947 66.3425 71.424C65.8732 71.7227 65.2758 71.872 64.5505 71.872C63.7825 71.872 63.2065 71.68 62.8225 71.296C62.3105 71.68 61.6705 71.872 60.9025 71.872C59.9212 71.872 59.0678 71.5733 58.3425 70.976C57.6172 70.3787 57.3185 69.632 57.4465 68.736C55.9958 68.2667 55.2705 66.9227 55.2705 64.704C55.2705 64.064 55.2918 63.5947 55.3345 63.296C54.9932 62.3573 54.8225 61.312 54.8225 60.16C54.8225 59.0933 54.9932 58.2613 55.3345 57.664C55.1212 57.1947 54.9292 56.512 54.7585 55.616C54.5878 54.72 54.5025 53.8453 54.5025 52.992C54.5025 51.584 54.7585 50.6453 55.2705 50.176C54.8012 49.7067 54.5665 49.088 54.5665 48.32C54.5665 47.9787 54.6305 47.6587 54.7585 47.36C54.4172 46.9333 54.2465 46.464 54.2465 45.952C54.2465 45.312 54.4385 44.8 54.8225 44.416C54.6945 44.0747 54.6305 43.7333 54.6305 43.392C54.6305 43.0933 54.6945 42.7947 54.8225 42.496C54.4385 42.112 54.2465 41.408 54.2465 40.384C54.2465 39.616 54.3532 38.7627 54.5665 37.824C53.9265 37.312 53.6065 36.3733 53.6065 35.008C53.6065 34.368 53.6705 33.7493 53.7985 33.152C53.9692 32.512 54.1825 31.9787 54.4385 31.552C54.0972 31.2107 53.8198 30.7627 53.6065 30.208C53.3932 29.6107 53.2865 29.0133 53.2865 28.416C53.2865 27.776 53.4145 27.2427 53.6705 26.816C54.2252 26.1333 54.9292 25.792 55.7825 25.792C56.3372 25.792 56.8278 25.9413 57.2545 26.24C57.7238 26.5387 58.0438 26.944 58.2145 27.456C59.1532 27.0293 59.9638 26.816 60.6465 26.816C61.2865 26.816 61.9052 26.9867 62.5025 27.328C62.7585 27.1573 63.1638 26.9867 63.7185 26.816C64.2732 26.6453 64.8065 26.56 65.3185 26.56C65.9158 26.56 66.3852 26.7093 66.7265 27.008C67.1105 26.7947 67.5372 26.688 68.0065 26.688C68.6465 26.688 69.3718 26.9867 70.1825 27.584C70.9932 27.4987 71.8038 27.6267 72.6145 27.968C73.4252 28.2667 74.0652 28.7573 74.5345 29.44C75.0038 29.0987 75.5158 28.928 76.0705 28.928C76.5398 28.928 76.9878 29.056 77.4145 29.312C77.8412 29.5253 78.1825 29.8667 78.4385 30.336C78.8652 30.5493 79.2492 30.9973 79.5905 31.68C79.9318 32.32 80.1025 32.896 80.1025 33.408C80.4438 33.3653 80.7425 33.6427 80.9985 34.24C81.2545 34.7947 81.3825 35.392 81.3825 36.032C81.3825 36.7147 81.2332 37.2053 80.9345 37.504C81.0625 37.8027 81.1265 38.08 81.1265 38.336C81.1265 38.6347 81.0198 38.8693 80.8065 39.04C81.1052 39.4667 81.2545 39.9573 81.2545 40.512C81.2545 40.9387 81.1692 41.3653 80.9985 41.792C80.8278 42.176 80.6145 42.496 80.3585 42.752C80.4012 42.8373 80.4225 42.9653 80.4225 43.136C80.4225 43.5627 80.1878 44.0533 79.7185 44.608C79.4625 45.2053 79.1852 45.6747 78.8865 46.016C78.5878 46.3573 78.1612 46.6133 77.6065 46.784C77.2652 47.1253 76.5398 47.2747 75.4305 47.232C75.9852 47.2747 76.3692 47.3813 76.5825 47.552C76.8385 47.7227 76.9878 47.8933 77.0305 48.064C77.1158 48.192 77.1798 48.2773 77.2225 48.32C77.9478 48.32 78.5452 48.5333 79.0145 48.96C79.5265 49.344 79.8465 49.92 79.9745 50.688C80.4865 50.9867 80.8918 51.392 81.1905 51.904C81.4892 52.3733 81.5745 52.8427 81.4465 53.312C82.0012 53.824 82.2785 54.6347 82.2785 55.744C82.2785 56.6827 82.0652 57.408 81.6385 57.92ZM59.9425 43.328C60.1558 43.6267 60.2625 44.0533 60.2625 44.608C60.2625 45.12 60.1558 45.5467 59.9425 45.888C60.1558 46.272 60.2625 46.72 60.2625 47.232C60.8598 46.5067 61.5212 46.144 62.2465 46.144C62.6305 46.144 63.0145 46.272 63.3985 46.528C63.6972 46.1013 64.2092 45.888 64.9345 45.888C65.6598 45.888 66.4278 46.0587 67.2385 46.4C67.7505 45.9733 68.4972 45.6533 69.4785 45.44C70.5025 45.184 71.2705 45.0987 71.7825 45.184C72.2092 44.6293 72.8492 44.0747 73.7025 43.52C74.5558 42.9653 75.1958 42.6453 75.6225 42.56C75.2812 42.0053 75.1105 41.3653 75.1105 40.64C75.1105 39.616 75.3025 38.8267 75.6865 38.272C75.3025 37.76 74.9825 37.0773 74.7265 36.224C74.5132 35.328 74.4492 34.6027 74.5345 34.048C74.2785 34.1333 74.0438 34.176 73.8305 34.176C73.4038 34.176 72.9772 34.0693 72.5505 33.856C72.1665 33.6427 71.8678 33.344 71.6545 32.96C71.3985 33.0453 70.9718 33.088 70.3745 33.088C69.3505 33.088 68.6252 32.9173 68.1985 32.576C67.7718 33.1733 66.9398 33.472 65.7025 33.472C64.4225 33.472 63.2918 33.1733 62.3105 32.576C61.8838 33.0027 61.2225 33.216 60.3265 33.216C59.8572 33.216 59.3238 33.1307 58.7265 32.96C59.0678 33.216 59.3238 33.7493 59.4945 34.56C59.7078 35.3707 59.8145 36.2027 59.8145 37.056C59.8145 37.9093 59.7505 38.528 59.6225 38.912C60.0492 39.3813 60.2625 40.256 60.2625 41.536C60.2625 42.2187 60.1558 42.816 59.9425 43.328ZM75.1745 62.464C75.3025 61.568 75.7505 60.9493 76.5185 60.608C76.2198 60.2667 76.0705 59.8827 76.0705 59.456C76.0705 59.2427 76.0918 58.9867 76.1345 58.688C76.2198 58.3893 76.2838 58.112 76.3265 57.856C76.0705 57.728 75.7932 57.2587 75.4945 56.448C75.2385 55.5947 75.1105 54.8267 75.1105 54.144C75.1105 53.8027 75.1318 53.568 75.1745 53.44C74.6625 53.44 74.1718 53.248 73.7025 52.864C73.2758 52.4373 72.9345 51.968 72.6785 51.456C71.5265 51.8827 70.6305 52.096 69.9905 52.096C69.5212 52.096 68.9238 51.9893 68.1985 51.776C67.5158 52.2453 66.8118 52.48 66.0865 52.48C65.6172 52.48 65.1478 52.3947 64.6785 52.224C63.5692 52.7787 62.5238 53.056 61.5425 53.056C61.0732 53.056 60.5825 52.992 60.0705 52.864C60.4118 53.3333 60.5825 54.2933 60.5825 55.744C60.5825 57.3653 60.4118 58.7307 60.0705 59.84C60.4972 60.3093 60.7105 61.0347 60.7105 62.016C60.7105 62.5707 60.6252 63.232 60.4545 64C60.9238 64.0427 61.3292 64.256 61.6705 64.64C62.0545 65.024 62.2892 65.4507 62.3745 65.92C62.6305 65.8347 62.8438 65.792 63.0145 65.792C63.3558 65.792 63.6545 65.856 63.9105 65.984C64.2092 66.112 64.4012 66.2613 64.4865 66.432C64.9132 66.0053 65.4678 65.792 66.1505 65.792C66.4918 65.792 66.8758 65.8987 67.3025 66.112C67.7292 65.8133 68.1772 65.664 68.6465 65.664C69.0305 65.664 69.3718 65.728 69.6705 65.856C69.8838 65.472 70.2252 65.1733 70.6945 64.96C71.1638 64.7467 71.6545 64.64 72.1665 64.64C72.5505 64.64 72.8705 64.704 73.1265 64.832C73.2545 63.6373 73.9372 62.848 75.1745 62.464Z" fill="white"/>
</svg>
